<svg xmlns="http://www.w3.org/2000/svg" width="21.626" height="20.068" viewBox="0 0 21.626 20.068">
  <g id="그룹_25953" data-name="그룹 25953" transform="translate(0.001 0)">
    <g id="그룹_25957" data-name="그룹 25957" transform="translate(0 0)">
      <path id="패스_11598" data-name="패스 11598" d="M4.376,9.706q-1.484.286-1.3,1.255.3.879,1.583.891,1.512-.277,1.327-1.246a1.446,1.446,0,0,0-1.606-.9" transform="translate(0.369 1.17)"/>
      <path id="패스_11599" data-name="패스 11599" d="M20.12,15.868l-.062-.9L20.07,4.887,20.038,4.5a5.123,5.123,0,0,0-.968-2.446A5.039,5.039,0,0,0,15.286.009L5,0,4.518.029A5.1,5.1,0,0,0,0,4.773L.011,15.439A5.092,5.092,0,0,0,4.4,20.027l.653.041H15.213l.593-.062.429-.09.707-.238.662-.335.5-.34,3.17-1.329c.231-.1.347-.178.347-.233a1.556,1.556,0,0,1-1.505-1.574" transform="translate(0 0)" fill="#48317d"/>
      <path id="패스_11597" data-name="패스 11597" d="M17.845,7.808l-.151-.725a5.514,5.514,0,0,0-2.255-3.305l-.635-.34-.329-.133-.464-.131-.02.019-.056.046-.027.087V3.6a3.9,3.9,0,0,1,.17,1.983Q13.955,6.2,13,6.713l-.445.181-.435.121L11.115,7.2l-.955.076-3.418.064-.925.057-1.008.094L3.92,7.62Q1.68,8.047,1.132,8.915a2.968,2.968,0,0,0-.491,1.53L.615,12.06V12.3l.027,1.593.076.624A4.045,4.045,0,0,0,4.525,17.76h9.506a4.1,4.1,0,0,0,2.637-1.178,4.062,4.062,0,0,0,1.171-2.523l.12-3.777-.007-1.359ZM4.222,11.918A1,1,0,0,1,3.153,11.1q-.121-.9.88-1.159.775-.107,1.084.83.126.9-.894,1.152m6.383,4.607H8.044L7.8,16.514l-.284-.064q-.838-.208-.925-1.907l.673-.011a1.27,1.27,0,0,0,.509,1.3l.121.03h2.674q.585.056.669-1.333h.66q.095,1.68-1.291,1.994m3.606-4.607a1,1,0,0,1-1.069-.843q-.1-.887.888-1.14.747-.113,1.077.819.124.907-.9,1.164" transform="translate(0.788 0.987)" fill="#dfdaeb"/>
    </g>
  </g>
</svg>
