<svg xmlns="http://www.w3.org/2000/svg" width="20.079" height="20.059" viewBox="0 0 20.079 20.059">
  <g id="그룹_25955" data-name="그룹 25955" transform="translate(0 0)">
    <g id="그룹_25956" data-name="그룹 25956" transform="translate(0 0)">
      <path id="패스_11604" data-name="패스 11604" d="M.88,17.83A5.123,5.123,0,0,0,4.5,20.03l10.714.029a5.1,5.1,0,0,0,4.764-4.049l.09-.662.012-.38-.02-10.4A5.1,5.1,0,0,0,15.3,0H4.765A5.095,5.095,0,0,0,.008,4.785L0,15.041l.029.491a5.044,5.044,0,0,0,.851,2.3" transform="translate(0 0)" fill="#48317d"/>
      <path id="패스_11602" data-name="패스 11602" d="M.687,14.3a4.169,4.169,0,0,0,1.289,2.39,4.089,4.089,0,0,0,2.5,1.05H14.1a4.1,4.1,0,0,0,2.42-.974A4.161,4.161,0,0,0,17.776,14.8l.114-.52.037-.372v-.854l.011-7.291c-.007-.387-.056-.614-.145-.683l-.159-.03-.087.019-.387.172-.815.454-1.055.486-.576.216-.911.285-.865.2-1.2.2-1.111.106-1.184.038-1.5-.038L6.851,7.083,5.725,6.9l-.93-.22-.854-.265L3.3,6.172l-.581-.254L1.457,5.235l-.4-.171H.877l-.114.083-.083.315-.037.322L.573,7.872V9.6l.076,4.222Zm13.4-4.419a.978.978,0,0,1,1.1.891q.1.816-.9,1.1-.747.1-1.08-.846a.99.99,0,0,1,.884-1.145m-10.034,0a.981.981,0,0,1,1.1.9q.112.8-.911,1.093a1.01,1.01,0,0,1-1.074-.835.994.994,0,0,1,.884-1.156M3.3,13.645q.151,1.528,2.163,2.124l.486.069h6.665a2.817,2.817,0,0,0,2.655-2.022l.011-.171h.664a2.489,2.489,0,0,1-1,1.916,4.1,4.1,0,0,1-2.359.94H6.017l-.285-.019-.576-.113q-2.42-.873-2.523-2.705Z" transform="translate(0.747 1.106)" fill="#f2ecff"/>
    </g>
  </g>
</svg>
