<svg width="36" height="52" viewBox="0 0 36 52" fill="none" xmlns="http://www.w3.org/2000/svg">
<path d="M22.8139 0L13.8847 8.9042L22.8137 17.8082L31.743 8.90401L22.8139 0Z" fill="white"/>
<path d="M12.0414 10.5934H5.25781V17.4146H12.0414V10.5934Z" fill="white"/>
<path d="M12.0414 0.393762H5.25781V7.15837H12.0414V0.393762Z" fill="white"/>
<path d="M7.27323 34.8684C7.27323 35.1477 7.21394 35.4069 7.09535 35.6463C6.98335 35.8856 6.81206 36.0884 6.58147 36.2546C6.35088 36.4275 6.06429 36.5604 5.7217 36.6535C5.3857 36.7532 4.9937 36.8031 4.5457 36.8031C4.0977 36.8031 3.7057 36.7532 3.3697 36.6535C3.0337 36.5604 2.75041 36.4275 2.51982 36.2546C2.29582 36.0884 2.12453 35.8856 2.00594 35.6463C1.89394 35.4136 1.83794 35.1543 1.83794 34.8684C1.83794 34.5892 1.89394 34.3332 2.00594 34.1005C2.12453 33.8612 2.29582 33.6551 2.51982 33.4822C2.75041 33.3094 3.0337 33.1764 3.3697 33.0833C3.7057 32.9836 4.0977 32.9337 4.5457 32.9337C4.9937 32.9337 5.3857 32.9836 5.7217 33.0833C6.06429 33.1764 6.35088 33.3094 6.58147 33.4822C6.81206 33.6551 6.98335 33.8612 7.09535 34.1005C7.21394 34.3332 7.27323 34.5892 7.27323 34.8684ZM8.7457 32.6445H0.345703V31.6672H8.7457V32.6445ZM6.10711 34.8684C6.10711 34.5626 5.96217 34.3299 5.67229 34.1703C5.38241 34.0041 5.00688 33.921 4.5457 33.921C4.08453 33.921 3.71229 34.0041 3.429 34.1703C3.1457 34.3299 3.00406 34.5626 3.00406 34.8684C3.00406 35.028 3.04359 35.1676 3.12264 35.2873C3.2017 35.4069 3.31041 35.5067 3.44876 35.5865C3.58711 35.6596 3.74853 35.7161 3.933 35.756C4.12406 35.7959 4.32829 35.8158 4.5457 35.8158C4.7697 35.8158 4.97723 35.7959 5.16829 35.756C5.35935 35.7161 5.52406 35.6596 5.66241 35.5865C5.80076 35.5067 5.90947 35.4069 5.98853 35.2873C6.06759 35.1676 6.10711 35.028 6.10711 34.8684ZM1.31417 27.758H3.96264V26.8804H5.12876V27.758H7.77723V28.7353H6.75935C6.81864 28.8549 6.86147 28.9946 6.88782 29.1541C6.92076 29.307 6.93394 29.4433 6.92735 29.563C6.92076 29.8223 6.86147 30.0616 6.74947 30.281C6.64406 30.5004 6.48923 30.6932 6.285 30.8594C6.08735 31.0257 5.84029 31.1553 5.54382 31.2484C5.25394 31.3414 4.92123 31.388 4.5457 31.388C4.17017 31.388 3.83417 31.3448 3.5377 31.2583C3.24123 31.1653 2.99088 31.0423 2.78664 30.8894C2.589 30.7298 2.43417 30.5436 2.32217 30.3309C2.21676 30.1181 2.16406 29.8888 2.16406 29.6428C2.16406 29.4899 2.19041 29.3336 2.24311 29.1741C2.30241 29.0145 2.39135 28.8682 2.50994 28.7353H1.31417V27.758ZM3.31041 29.6228C3.31041 29.8489 3.42241 30.035 3.64641 30.1813C3.87041 30.3209 4.17017 30.3907 4.5457 30.3907C4.96735 30.3907 5.277 30.301 5.47464 30.1215C5.67888 29.942 5.781 29.7259 5.781 29.4732C5.781 29.3336 5.76123 29.2007 5.7217 29.0743C5.68217 28.9414 5.63606 28.8284 5.58335 28.7353H4.48641C4.30194 28.7353 4.13723 28.7619 3.99229 28.8151C3.84735 28.8616 3.72217 28.9248 3.61676 29.0045C3.51794 29.0843 3.44217 29.1774 3.38947 29.2838C3.33676 29.3901 3.31041 29.5032 3.31041 29.6228Z" fill="white"/>
<path d="M17.639 31.7271H13.9925V33.0035H16.0875C16.1863 33.0035 16.2654 33.0268 16.3247 33.0734C16.384 33.1132 16.4136 33.1831 16.4136 33.2828V36.5638H15.2475V34.0208H10.4645V33.0035H12.8263V31.7271H9.23905V30.7099H14.783C14.9016 30.4306 14.9906 30.1647 15.0499 29.912C15.1092 29.6528 15.1388 29.3935 15.1388 29.1342C15.1388 29.0278 15.1256 28.9381 15.0993 28.8649C15.0795 28.7851 15.0334 28.722 14.9609 28.6754C14.895 28.6223 14.7995 28.5857 14.6743 28.5657C14.5492 28.5458 14.3878 28.5358 14.1901 28.5358H10.5732V27.5186H14.6743C15.0169 27.5186 15.2969 27.5519 15.5143 27.6183C15.7318 27.6782 15.903 27.7613 16.0282 27.8677C16.1534 27.9674 16.239 28.0904 16.2852 28.2366C16.3313 28.3763 16.3543 28.5259 16.3543 28.6854C16.3543 28.9181 16.3445 29.1242 16.3247 29.3037C16.3049 29.4832 16.2786 29.6528 16.2456 29.8123C16.2127 29.9652 16.1699 30.1148 16.1172 30.2611C16.071 30.4007 16.015 30.5503 15.9492 30.7099H17.639V31.7271Z" fill="white"/>
<path d="M18.7352 30.5503C18.7352 30.3375 18.7649 30.1348 18.8242 29.942C18.89 29.7425 18.9922 29.5564 19.1305 29.3835H18.2707V28.3763H20.4152V27.2095H21.5813V28.3763H23.7653V29.3835H23.0637C23.1362 29.5763 23.1856 29.7724 23.2119 29.9719C23.2449 30.1647 23.2613 30.3575 23.2613 30.5503C23.2613 30.8029 23.2218 31.0456 23.1427 31.2783C23.0637 31.5043 22.9517 31.7104 22.8067 31.8966C22.6618 32.0827 22.4872 32.2423 22.283 32.3753C22.0787 32.5082 21.8515 32.6046 21.6011 32.6645V33.7415H21.7395C22.2995 33.7415 22.8002 33.7083 23.2416 33.6418C23.683 33.5753 24.0618 33.4556 24.378 33.2828V27.3092H25.5442V30.7497H26.9475V31.5974C26.7169 31.7038 26.4698 31.7669 26.2063 31.7869C25.9493 31.8002 25.7286 31.8068 25.5442 31.8068V36.464H24.378V34.2402C24.1343 34.3598 23.8773 34.4529 23.6072 34.5194C23.3437 34.5859 23.0703 34.6391 22.787 34.6789C22.5103 34.7122 22.227 34.7321 21.9371 34.7388C21.6472 34.7454 21.3606 34.7488 21.0773 34.7488H18.1522V33.7415H20.435V32.6745C20.178 32.6213 19.9442 32.5282 19.7333 32.3952C19.5225 32.2623 19.3413 32.1027 19.1898 31.9165C19.0449 31.7304 18.9329 31.521 18.8538 31.2883C18.7747 31.0556 18.7352 30.8096 18.7352 30.5503ZM19.8816 30.5503C19.8816 30.8827 19.9771 31.1619 20.1682 31.388C20.3658 31.614 20.6425 31.7271 20.9983 31.7271C21.1762 31.7271 21.331 31.6971 21.4627 31.6373C21.6011 31.5708 21.7164 31.4844 21.8086 31.378C21.9075 31.265 21.9799 31.1387 22.026 30.9991C22.0787 30.8594 22.1084 30.7099 22.115 30.5503C22.1282 30.3575 22.1183 30.1647 22.0853 29.9719C22.059 29.7724 22.0063 29.5763 21.9272 29.3835H20.8402C20.6886 29.3835 20.5536 29.4167 20.435 29.4832C20.3164 29.5431 20.2143 29.6295 20.1286 29.7425C20.0496 29.8489 19.987 29.9719 19.9409 30.1115C19.9013 30.2511 19.8816 30.3974 19.8816 30.5503Z" fill="white"/>
<path d="M33.9015 31.388C33.7698 31.4412 33.6314 31.4744 33.4865 31.4877C33.3481 31.4944 33.2098 31.4977 33.0714 31.4977V36.3543H31.9251V27.4089H33.0714V30.4406H33.9015V27.3092H35.0479V36.464H33.9015V31.388ZM31.3618 28.9547H30.0771L29.8893 30.6899C30.0672 30.8827 30.2418 31.1054 30.4131 31.3581C30.5844 31.6107 30.7458 31.8766 30.8973 32.1559C31.0488 32.4351 31.1872 32.721 31.3124 33.0135C31.4441 33.2994 31.5561 33.5687 31.6484 33.8213L30.6502 34.2501C30.5844 34.0507 30.502 33.8346 30.4032 33.6019C30.3044 33.3626 30.199 33.1299 30.087 32.9038C29.9815 32.6711 29.8728 32.4551 29.7608 32.2556C29.6554 32.0495 29.5566 31.8833 29.4644 31.757C29.2601 32.1825 29.046 32.6113 28.822 33.0434C28.598 33.4756 28.3707 33.9011 28.1401 34.3199L27.1321 33.8213C27.4022 33.3626 27.6526 32.9105 27.8832 32.465C28.1204 32.0196 28.3312 31.5908 28.5157 31.1786C28.575 31.0456 28.6244 30.906 28.6639 30.7597C28.71 30.6068 28.743 30.4439 28.7627 30.2711L28.9011 28.9547H27.4681V27.9474H31.3618V28.9547Z" fill="white"/>
<path d="M3.92593 47.5108C4.1631 47.5108 4.36405 47.4776 4.52875 47.4111C4.70005 47.3446 4.84169 47.2549 4.95369 47.1418C5.07228 47.0288 5.16452 46.8992 5.2304 46.7529C5.29628 46.6 5.34569 46.4371 5.37863 46.2643C5.41157 46.1113 5.43134 45.9518 5.43793 45.7856C5.4511 45.6127 5.45769 45.4299 5.45769 45.2371V40.7993H6.67322V45.0376C6.67322 45.4033 6.65675 45.759 6.62381 46.1047C6.59746 46.4504 6.52499 46.7695 6.4064 47.0621C6.21534 47.5408 5.90569 47.9131 5.47746 48.179C5.04922 48.4449 4.53204 48.5779 3.92593 48.5779C3.31981 48.5779 2.80263 48.4449 2.3744 48.179C1.94616 47.9131 1.63652 47.5408 1.44546 47.0621C1.32687 46.7695 1.2511 46.4504 1.21816 46.1047C1.19181 45.759 1.17863 45.4033 1.17863 45.0376V40.7993H2.39416V45.2371C2.39416 45.4299 2.39746 45.6127 2.40405 45.7856C2.41722 45.9518 2.44028 46.1113 2.47322 46.2643C2.50616 46.4371 2.55557 46.6 2.62146 46.7529C2.68734 46.8992 2.77628 47.0288 2.88828 47.1418C3.00687 47.2549 3.14852 47.3446 3.31322 47.4111C3.48452 47.4776 3.68875 47.5108 3.92593 47.5108Z" fill="white"/>
<path d="M7.73434 44.9778V43.8808H11.6181V44.9778H7.73434Z" fill="white"/>
<path d="M17.5547 43.1628C17.5547 43.7744 17.3966 44.303 17.0803 44.7484C16.7641 45.1939 16.2963 45.4964 15.677 45.6559C15.486 45.7025 15.2785 45.739 15.0545 45.7656C14.8305 45.7922 14.5867 45.8055 14.3232 45.8055H13.8982V48.4383H12.6827V40.7993H14.9853C15.341 40.7993 15.6738 40.8491 15.9834 40.9489C16.2996 41.0419 16.573 41.1849 16.8036 41.3777C17.0342 41.5705 17.2154 41.8165 17.3472 42.1157C17.4855 42.4082 17.5547 42.7572 17.5547 43.1628ZM13.8982 41.8165V44.7584H14.3825C14.6065 44.7584 14.8008 44.7484 14.9655 44.7285C15.1302 44.7085 15.2818 44.672 15.4201 44.6188C15.7363 44.5124 15.9669 44.3395 16.1119 44.1002C16.2568 43.8542 16.3293 43.5816 16.3293 43.2824C16.3293 43.0365 16.2865 42.8237 16.2008 42.6442C16.1152 42.458 15.9999 42.3051 15.8549 42.1855C15.71 42.0591 15.5387 41.9661 15.341 41.9062C15.15 41.8464 14.9458 41.8165 14.7283 41.8165H13.8982Z" fill="white"/>
<path d="M21.4893 44.1102C21.3904 44.0769 21.2982 44.057 21.2126 44.0503C21.1335 44.037 21.0742 44.0304 21.0347 44.0304C20.8963 44.037 20.7547 44.0736 20.6097 44.1401C20.4648 44.2066 20.3264 44.303 20.1947 44.4293C20.0629 44.549 19.941 44.7019 19.829 44.888C19.7236 45.0675 19.638 45.277 19.5721 45.5163V48.4383H18.3862V42.9135H19.4337L19.5029 43.8309C19.6215 43.6381 19.7401 43.4786 19.8587 43.3523C19.9838 43.2259 20.1123 43.1262 20.2441 43.0531C20.3824 42.9799 20.5274 42.9301 20.6789 42.9035C20.837 42.8702 21.0083 42.8536 21.1928 42.8536C21.2653 42.8536 21.3476 42.8603 21.4398 42.8736C21.5387 42.8802 21.6375 42.8968 21.7363 42.9234L21.4893 44.1102Z" fill="white"/>
<path d="M23.6619 41.3478C23.6619 41.5672 23.5993 41.74 23.4741 41.8663C23.3556 41.986 23.181 42.0458 22.9504 42.0458C22.7198 42.0458 22.5419 41.986 22.4167 41.8663C22.2916 41.74 22.229 41.5672 22.229 41.3478C22.229 41.1284 22.2916 40.9588 22.4167 40.8392C22.5419 40.7128 22.7198 40.6497 22.9504 40.6497C23.181 40.6497 23.3556 40.7128 23.4741 40.8392C23.5993 40.9588 23.6619 41.1284 23.6619 41.3478ZM22.3673 48.4383V42.9534H23.5532V48.4383H22.3673Z" fill="white"/>
<path d="M28.108 48.4383L28.0191 47.7103C27.7029 48.0095 27.4064 48.2255 27.1297 48.3585C26.8596 48.4915 26.573 48.558 26.2699 48.558C26.0327 48.558 25.8055 48.5048 25.588 48.3984C25.3706 48.2854 25.1796 48.1158 25.0149 47.8898C24.8567 47.6571 24.7283 47.3646 24.6295 47.0122C24.5306 46.6598 24.4812 46.2443 24.4812 45.7656C24.4812 45.154 24.5537 44.6553 24.6986 44.2697C24.8502 43.8841 25.0412 43.5816 25.2718 43.3622C25.509 43.1428 25.7692 42.9932 26.0525 42.9135C26.3424 42.8337 26.6224 42.7938 26.8925 42.7938C27.1165 42.7938 27.3076 42.8071 27.4657 42.8337C27.6238 42.8536 27.7753 42.8702 27.9203 42.8835V40.7594H29.0963V48.4383H28.108ZM27.9203 43.9406C27.716 43.9074 27.5316 43.8808 27.3669 43.8609C27.2087 43.8409 27.0638 43.8309 26.932 43.8309C26.7805 43.8309 26.629 43.8609 26.4775 43.9207C26.3325 43.9805 26.204 44.0836 26.092 44.2298C25.98 44.3695 25.8878 44.5589 25.8153 44.7983C25.7495 45.031 25.7165 45.3235 25.7165 45.6759C25.7165 46.0083 25.7429 46.2875 25.7956 46.5136C25.8549 46.7396 25.9273 46.9225 26.013 47.0621C26.1052 47.2017 26.204 47.3014 26.3095 47.3612C26.4215 47.4211 26.5335 47.451 26.6455 47.451C26.8102 47.451 26.9913 47.3978 27.189 47.2914C27.3866 47.1784 27.6304 46.9623 27.9203 46.6432V43.9406Z" fill="white"/>
<path d="M34.6309 47.9795C34.2488 48.1391 33.8634 48.2721 33.4747 48.3785C33.0926 48.4848 32.6973 48.538 32.2888 48.538C31.966 48.538 31.6629 48.4981 31.3796 48.4183C31.1029 48.3319 30.8592 48.1823 30.6483 47.9696C30.4441 47.7568 30.2794 47.4709 30.1542 47.1119C30.0356 46.7529 29.9763 46.2975 29.9763 45.7457C29.9763 45.1939 30.0488 44.7285 30.1938 44.3495C30.3453 43.9706 30.5396 43.6681 30.7768 43.442C31.0206 43.2093 31.2907 43.0431 31.5872 42.9434C31.8902 42.8437 32.1933 42.7938 32.4963 42.7938C32.7862 42.7938 33.0564 42.837 33.3067 42.9234C33.5571 43.0099 33.7745 43.1495 33.9589 43.3423C34.15 43.5351 34.2982 43.7877 34.4036 44.1002C34.5156 44.4127 34.5716 44.7983 34.5716 45.257C34.5716 45.3435 34.5683 45.4299 34.5618 45.5163C34.5618 45.5961 34.5486 45.7324 34.5222 45.9252H31.1721C31.1985 46.2244 31.2446 46.4737 31.3105 46.6731C31.3763 46.8659 31.462 47.0189 31.5674 47.1319C31.6794 47.2449 31.8112 47.3247 31.9627 47.3712C32.1208 47.4178 32.302 47.441 32.5062 47.441C32.75 47.441 33.0432 47.4011 33.3858 47.3214C33.7283 47.2349 34.0841 47.1286 34.4531 47.0022L34.6309 47.9795ZM32.4173 43.7611C32.2921 43.7611 32.1669 43.7778 32.0418 43.811C31.9166 43.8442 31.798 43.9074 31.686 44.0005C31.5806 44.0869 31.4851 44.2066 31.3994 44.3595C31.3138 44.5124 31.2479 44.7085 31.2018 44.9479H33.366C33.3462 44.5357 33.2441 44.2365 33.0596 44.0503C32.8818 43.8575 32.6676 43.7611 32.4173 43.7611Z" fill="white"/>
</svg>
