<svg width="36" height="52" viewBox="0 0 36 52" fill="none" xmlns="http://www.w3.org/2000/svg">
<path d="M7.33964 34.8684C7.33964 35.1477 7.28035 35.4069 7.16176 35.6463C7.04976 35.8856 6.87846 36.0884 6.64787 36.2546C6.41729 36.4275 6.1307 36.5604 5.78811 36.6535C5.45211 36.7532 5.06011 36.8031 4.61211 36.8031C4.16411 36.8031 3.77211 36.7532 3.43611 36.6535C3.10011 36.5604 2.81682 36.4275 2.58623 36.2546C2.36223 36.0884 2.19093 35.8856 2.07234 35.6463C1.96034 35.4136 1.90434 35.1543 1.90434 34.8684C1.90434 34.5892 1.96034 34.3332 2.07234 34.1005C2.19093 33.8612 2.36223 33.6551 2.58623 33.4822C2.81682 33.3094 3.10011 33.1764 3.43611 33.0833C3.77211 32.9836 4.16411 32.9337 4.61211 32.9337C5.06011 32.9337 5.45211 32.9836 5.78811 33.0833C6.1307 33.1764 6.41729 33.3094 6.64787 33.4822C6.87846 33.6551 7.04976 33.8612 7.16176 34.1005C7.28035 34.3332 7.33964 34.5892 7.33964 34.8684ZM8.81211 32.6445H0.412109V31.6672H8.81211V32.6445ZM6.17352 34.8684C6.17352 34.5626 6.02858 34.3299 5.7387 34.1703C5.44882 34.0041 5.07329 33.921 4.61211 33.921C4.15093 33.921 3.7787 34.0041 3.4954 34.1703C3.21211 34.3299 3.07046 34.5626 3.07046 34.8684C3.07046 35.028 3.10999 35.1676 3.18905 35.2873C3.26811 35.4069 3.37682 35.5067 3.51517 35.5865C3.65352 35.6596 3.81493 35.7161 3.9994 35.756C4.19046 35.7959 4.3947 35.8158 4.61211 35.8158C4.83611 35.8158 5.04364 35.7959 5.2347 35.756C5.42576 35.7161 5.59046 35.6596 5.72882 35.5865C5.86717 35.5067 5.97587 35.4069 6.05493 35.2873C6.13399 35.1676 6.17352 35.028 6.17352 34.8684ZM1.38058 27.758H4.02905V26.8804H5.19517V27.758H7.84364V28.7353H6.82576C6.88505 28.8549 6.92787 28.9946 6.95423 29.1541C6.98717 29.307 7.00035 29.4433 6.99376 29.563C6.98717 29.8223 6.92787 30.0616 6.81587 30.281C6.71046 30.5004 6.55564 30.6932 6.3514 30.8594C6.15376 31.0257 5.9067 31.1553 5.61023 31.2484C5.32034 31.3414 4.98764 31.388 4.61211 31.388C4.23658 31.388 3.90058 31.3448 3.60411 31.2583C3.30764 31.1653 3.05729 31.0423 2.85305 30.8894C2.6554 30.7298 2.50058 30.5436 2.38858 30.3309C2.28317 30.1181 2.23046 29.8888 2.23046 29.6428C2.23046 29.4899 2.25682 29.3336 2.30952 29.1741C2.36882 29.0145 2.45776 28.8682 2.57634 28.7353H1.38058V27.758ZM3.37682 29.6228C3.37682 29.8489 3.48882 30.035 3.71282 30.1813C3.93682 30.3209 4.23658 30.3907 4.61211 30.3907C5.03376 30.3907 5.3434 30.301 5.54105 30.1215C5.74529 29.942 5.8474 29.7259 5.8474 29.4732C5.8474 29.3336 5.82764 29.2007 5.78811 29.0743C5.74858 28.9414 5.70246 28.8284 5.64976 28.7353H4.55282C4.36835 28.7353 4.20364 28.7619 4.0587 28.8151C3.91376 28.8616 3.78858 28.9248 3.68317 29.0045C3.58434 29.0843 3.50858 29.1774 3.45587 29.2838C3.40317 29.3901 3.37682 29.5032 3.37682 29.6228Z" fill="white"/>
<path d="M17.7055 31.7271H14.0589V33.0035H16.1539C16.2528 33.0035 16.3318 33.0268 16.3911 33.0734C16.4504 33.1132 16.48 33.1831 16.48 33.2828V36.5638H15.3139V34.0208H10.5309V33.0035H12.8927V31.7271H9.30546V30.7099H14.8495C14.968 30.4306 15.057 30.1647 15.1163 29.912C15.1756 29.6528 15.2052 29.3935 15.2052 29.1342C15.2052 29.0278 15.192 28.9381 15.1657 28.8649C15.1459 28.7851 15.0998 28.722 15.0273 28.6754C14.9615 28.6223 14.8659 28.5857 14.7407 28.5657C14.6156 28.5458 14.4542 28.5358 14.2565 28.5358H10.6396V27.5186H14.7407C15.0833 27.5186 15.3633 27.5519 15.5807 27.6183C15.7982 27.6782 15.9695 27.7613 16.0946 27.8677C16.2198 27.9674 16.3055 28.0904 16.3516 28.2366C16.3977 28.3763 16.4207 28.5259 16.4207 28.6854C16.4207 28.9181 16.4109 29.1242 16.3911 29.3037C16.3713 29.4832 16.345 29.6528 16.312 29.8123C16.2791 29.9652 16.2363 30.1148 16.1836 30.2611C16.1375 30.4007 16.0815 30.5503 16.0156 30.7099H17.7055V31.7271Z" fill="white"/>
<path d="M18.8016 30.5503C18.8016 30.3375 18.8313 30.1348 18.8906 29.942C18.9564 29.7425 19.0586 29.5564 19.1969 29.3835H18.3372V28.3763H20.4816V27.2095H21.6477V28.3763H23.8317V29.3835H23.1301C23.2026 29.5763 23.252 29.7724 23.2783 29.9719C23.3113 30.1647 23.3277 30.3575 23.3277 30.5503C23.3277 30.8029 23.2882 31.0456 23.2092 31.2783C23.1301 31.5043 23.0181 31.7104 22.8732 31.8966C22.7282 32.0827 22.5536 32.2423 22.3494 32.3753C22.1452 32.5082 21.9179 32.6046 21.6675 32.6645V33.7415H21.8059C22.3659 33.7415 22.8666 33.7083 23.308 33.6418C23.7494 33.5753 24.1282 33.4556 24.4445 33.2828V27.3092H25.6106V30.7497H27.0139V31.5974C26.7833 31.7038 26.5362 31.7669 26.2727 31.7869C26.0157 31.8002 25.795 31.8068 25.6106 31.8068V36.464H24.4445V34.2402C24.2007 34.3598 23.9437 34.4529 23.6736 34.5194C23.4101 34.5859 23.1367 34.6391 22.8534 34.6789C22.5767 34.7122 22.2934 34.7321 22.0035 34.7388C21.7136 34.7454 21.427 34.7488 21.1437 34.7488H18.2186V33.7415H20.5014V32.6745C20.2444 32.6213 20.0106 32.5282 19.7997 32.3952C19.5889 32.2623 19.4077 32.1027 19.2562 31.9165C19.1113 31.7304 18.9993 31.521 18.9202 31.2883C18.8412 31.0556 18.8016 30.8096 18.8016 30.5503ZM19.948 30.5503C19.948 30.8827 20.0435 31.1619 20.2346 31.388C20.4322 31.614 20.7089 31.7271 21.0647 31.7271C21.2426 31.7271 21.3974 31.6971 21.5292 31.6373C21.6675 31.5708 21.7828 31.4844 21.875 31.378C21.9739 31.265 22.0463 31.1387 22.0924 30.9991C22.1452 30.8594 22.1748 30.7099 22.1814 30.5503C22.1946 30.3575 22.1847 30.1647 22.1517 29.9719C22.1254 29.7724 22.0727 29.5763 21.9936 29.3835H20.9066C20.755 29.3835 20.62 29.4167 20.5014 29.4832C20.3828 29.5431 20.2807 29.6295 20.195 29.7425C20.116 29.8489 20.0534 29.9719 20.0073 30.1115C19.9677 30.2511 19.948 30.3974 19.948 30.5503Z" fill="white"/>
<path d="M33.968 31.388C33.8362 31.4412 33.6978 31.4744 33.5529 31.4877C33.4145 31.4944 33.2762 31.4977 33.1378 31.4977V36.3543H31.9915V27.4089H33.1378V30.4406H33.968V27.3092H35.1143V36.464H33.968V31.388ZM31.4282 28.9547H30.1435L29.9557 30.6899C30.1336 30.8827 30.3082 31.1054 30.4795 31.3581C30.6508 31.6107 30.8122 31.8766 30.9637 32.1559C31.1152 32.4351 31.2536 32.721 31.3788 33.0135C31.5105 33.2994 31.6225 33.5687 31.7148 33.8213L30.7167 34.2501C30.6508 34.0507 30.5684 33.8346 30.4696 33.6019C30.3708 33.3626 30.2654 33.1299 30.1534 32.9038C30.0479 32.6711 29.9392 32.4551 29.8272 32.2556C29.7218 32.0495 29.623 31.8833 29.5308 31.757C29.3265 32.1825 29.1124 32.6113 28.8884 33.0434C28.6644 33.4756 28.4371 33.9011 28.2065 34.3199L27.1985 33.8213C27.4687 33.3626 27.719 32.9105 27.9496 32.465C28.1868 32.0196 28.3976 31.5908 28.5821 31.1786C28.6414 31.0456 28.6908 30.906 28.7303 30.7597C28.7764 30.6068 28.8094 30.4439 28.8291 30.2711L28.9675 28.9547H27.5345V27.9474H31.4282V28.9547Z" fill="white"/>
<path d="M0.868242 42.6043C0.868242 42.2785 0.93083 41.9794 1.05601 41.7068C1.18777 41.4275 1.36236 41.1882 1.57977 40.9888C1.79718 40.7827 2.05412 40.6231 2.35059 40.5101C2.64707 40.397 2.9633 40.3405 3.2993 40.3405H4.44565C4.6433 40.427 4.82118 40.5533 4.9793 40.7195C5.14401 40.8791 5.27907 41.0619 5.38448 41.268C5.49648 41.4674 5.58212 41.6835 5.64142 41.9162C5.70071 42.1489 5.73036 42.3783 5.73036 42.6043C5.73036 42.9301 5.66448 43.2326 5.53271 43.5118C5.40754 43.7844 5.23624 44.0238 5.01883 44.2299C4.80142 44.4293 4.54448 44.5855 4.24801 44.6986C3.95154 44.8116 3.6353 44.8681 3.2993 44.8681C2.9633 44.8681 2.64707 44.8116 2.35059 44.6986C2.05412 44.5855 1.79718 44.4293 1.57977 44.2299C1.36236 44.0238 1.18777 43.7844 1.05601 43.5118C0.93083 43.2326 0.868242 42.9301 0.868242 42.6043ZM2.03436 42.6043C2.03436 42.7905 2.0673 42.96 2.13318 43.1129C2.19907 43.2658 2.28801 43.3988 2.40001 43.5118C2.51859 43.6182 2.65365 43.7046 2.80518 43.7711C2.9633 43.8309 3.12801 43.8609 3.2993 43.8609C3.4706 43.8609 3.63201 43.8309 3.78354 43.7711C3.94165 43.7046 4.07671 43.6182 4.18871 43.5118C4.3073 43.3988 4.39954 43.2658 4.46542 43.1129C4.5313 42.96 4.56424 42.7905 4.56424 42.6043C4.56424 42.4979 4.55107 42.3816 4.52471 42.2553C4.49836 42.129 4.45883 42.0093 4.40612 41.8963C4.36001 41.7766 4.30401 41.6702 4.23812 41.5771C4.17224 41.4774 4.09648 41.401 4.01083 41.3478H3.2993C3.12801 41.3478 2.9633 41.381 2.80518 41.4475C2.65365 41.5073 2.51859 41.5938 2.40001 41.7068C2.28801 41.8132 2.19907 41.9428 2.13318 42.0957C2.0673 42.2486 2.03436 42.4182 2.03436 42.6043ZM8.34918 47.4809C8.34918 47.7934 8.2866 48.0826 8.16142 48.3485C8.04283 48.6078 7.86824 48.8305 7.63765 49.0167C7.41365 49.2095 7.13365 49.3591 6.79765 49.4655C6.46824 49.5718 6.09271 49.625 5.67107 49.625C5.24942 49.625 4.87389 49.5718 4.54448 49.4655C4.21507 49.3591 3.93507 49.2095 3.70448 49.0167C3.48048 48.8305 3.30589 48.6078 3.18071 48.3485C3.06212 48.0826 3.00283 47.7934 3.00283 47.4809C3.00283 47.1751 3.06212 46.8925 3.18071 46.6332C3.30589 46.3673 3.48048 46.1379 3.70448 45.9451C3.93507 45.7523 4.21507 45.6027 4.54448 45.4964C4.87389 45.39 5.24942 45.3368 5.67107 45.3368C6.09271 45.3368 6.46824 45.39 6.79765 45.4964C7.13365 45.6027 7.41365 45.7523 7.63765 45.9451C7.86824 46.1379 8.04283 46.3673 8.16142 46.6332C8.2866 46.8925 8.34918 47.1751 8.34918 47.4809ZM7.18307 47.4809C7.18307 47.3014 7.14354 47.1418 7.06448 47.0022C6.98542 46.856 6.87671 46.733 6.73836 46.6332C6.60659 46.5335 6.44848 46.4604 6.26401 46.4139C6.07954 46.3607 5.88189 46.3341 5.67107 46.3341C5.46024 46.3341 5.26259 46.3607 5.07812 46.4139C4.90024 46.4604 4.74212 46.5335 4.60377 46.6332C4.47201 46.733 4.36659 46.856 4.28754 47.0022C4.20848 47.1418 4.16895 47.3014 4.16895 47.4809C4.16895 47.6604 4.20848 47.8233 4.28754 47.9696C4.36659 48.1092 4.47201 48.2289 4.60377 48.3286C4.74212 48.4283 4.90024 48.5014 5.07812 48.548C5.26259 48.6012 5.46024 48.6278 5.67107 48.6278C5.88189 48.6278 6.07954 48.6012 6.26401 48.548C6.44848 48.5014 6.60659 48.4283 6.73836 48.3286C6.87671 48.2289 6.98542 48.1092 7.06448 47.9696C7.14354 47.8233 7.18307 47.6604 7.18307 47.4809ZM7.21271 44.1002C7.06118 44.1401 6.89318 44.1667 6.70871 44.18C6.53083 44.1933 6.36283 44.1999 6.20471 44.1999H5.86871V43.2027H7.21271V42.0359C7.04142 42.0824 6.85695 42.1123 6.6593 42.1256C6.46824 42.1323 6.29365 42.1356 6.13554 42.1356H5.86871V41.1383H7.21271V40.1311H8.37883V45.3568H7.21271V44.1002Z" fill="white"/>
<path d="M12.5556 45.3767V46.4238H15.8168V45.3767H16.973V48.4582C16.973 48.6045 16.9631 48.7308 16.9434 48.8372C16.9236 48.9436 16.8841 49.03 16.8248 49.0965C16.7655 49.163 16.6798 49.2095 16.5678 49.2361C16.4624 49.2693 16.3241 49.286 16.1528 49.286H11.3994V45.3767H12.5556ZM15.6685 48.2987C15.7278 48.2987 15.7674 48.2887 15.7871 48.2688C15.8069 48.2488 15.8168 48.2089 15.8168 48.1491V47.4111H12.5556V48.2987H15.6685ZM9.46241 42.5345C9.46241 42.2154 9.525 41.9229 9.65018 41.6569C9.78194 41.391 9.95653 41.1616 10.1739 40.9688C10.3914 40.7694 10.6483 40.6164 10.9448 40.5101C11.2412 40.397 11.5575 40.3405 11.8935 40.3405H13.0398C13.2441 40.427 13.4252 40.55 13.5834 40.7095C13.7481 40.8624 13.8831 41.0386 13.9885 41.2381C14.1005 41.4375 14.1829 41.6503 14.2356 41.8763C14.2949 42.0957 14.3245 42.3151 14.3245 42.5345C14.3245 42.8536 14.2587 43.1462 14.1269 43.4121C14.0017 43.678 13.8304 43.9107 13.613 44.1102C13.3956 44.303 13.1387 44.4559 12.8422 44.5689C12.5457 44.6753 12.2295 44.7285 11.8935 44.7285C11.5575 44.7285 11.2412 44.6753 10.9448 44.5689C10.6483 44.4559 10.3914 44.303 10.1739 44.1102C9.95653 43.9107 9.78194 43.678 9.65018 43.4121C9.525 43.1462 9.46241 42.8536 9.46241 42.5345ZM10.6285 42.5345C10.6285 42.714 10.6615 42.8769 10.7274 43.0232C10.7932 43.1628 10.8822 43.2858 10.9942 43.3922C11.1128 43.4985 11.2478 43.5816 11.3994 43.6415C11.5575 43.6947 11.7222 43.7212 11.8935 43.7212C12.0648 43.7212 12.2262 43.6947 12.3777 43.6415C12.5358 43.5816 12.6709 43.4985 12.7829 43.3922C12.9015 43.2858 12.9937 43.1628 13.0596 43.0232C13.1255 42.8769 13.1584 42.714 13.1584 42.5345C13.1584 42.3218 13.1057 42.099 13.0003 41.8663C12.9015 41.6336 12.7697 41.4608 12.605 41.3478H11.8935C11.7222 41.3478 11.5575 41.3777 11.3994 41.4375C11.2478 41.4907 11.1128 41.5705 10.9942 41.6769C10.8822 41.7832 10.7932 41.9096 10.7274 42.0558C10.6615 42.1954 10.6285 42.355 10.6285 42.5345ZM15.8069 42.9035C15.6619 42.9434 15.4939 42.97 15.3029 42.9833C15.1118 42.9966 14.9438 43.0032 14.7989 43.0032H14.6012V42.006H15.8069V40.1311H16.973V44.908H15.8069V42.9035Z" fill="white"/>
<path d="M25.5474 45.1772L22.7309 45.2969V47.1618H26.3479V48.169H17.9479V47.1618H21.5648V45.3468L18.8274 45.4665V44.4692L20.0924 44.4193L20.0133 41.6071H19.0251V40.5998H25.4486V41.6071H24.3615L24.2825 44.2398L25.5474 44.18V45.1772ZM21.2585 44.3695L23.1164 44.2897L23.1954 41.6071H21.1794L21.2585 44.3695Z" fill="white"/>
<path d="M32.8793 46.1645H28.5608V45.1872H33.6502C33.8017 45.1872 33.9038 45.2238 33.9565 45.2969C34.0158 45.3634 34.0455 45.4598 34.0455 45.5861V46.9424C34.0455 47.0887 34.0356 47.215 34.0158 47.3214C33.9961 47.4277 33.9565 47.5142 33.8972 47.5806C33.8379 47.6471 33.7523 47.697 33.6403 47.7302C33.5349 47.7568 33.3965 47.7701 33.2252 47.7701H29.717V48.4084H34.253V49.3857H28.5608V46.7928H32.7311C32.7904 46.7928 32.8299 46.7828 32.8497 46.7629C32.8695 46.7429 32.8793 46.7031 32.8793 46.6432V46.1645ZM31.4168 40.3804V41.3378H28.5113V41.9561H31.3179V42.9035H28.5113V43.6115H28.9561C29.1208 43.6115 29.3382 43.6082 29.6083 43.6016C29.8784 43.5949 30.1683 43.5816 30.4779 43.5617C30.7876 43.5417 31.1005 43.5151 31.4168 43.4819C31.7396 43.442 32.0393 43.3922 32.3161 43.3323V44.2299C32.0657 44.2963 31.7824 44.3528 31.4662 44.3994C31.1565 44.4393 30.837 44.4725 30.5076 44.4991C30.1848 44.5257 29.8718 44.5456 29.5688 44.5589C29.2657 44.5656 29.0022 44.5689 28.7782 44.5689H27.3452V40.3804H31.4168ZM34.0455 40.1311V41.8065H35.4488V42.6043C35.2182 42.7107 34.9711 42.7739 34.7076 42.7938C34.4506 42.8071 34.2299 42.8137 34.0455 42.8137V44.7185H32.8793V40.1311H34.0455Z" fill="white"/>
<path d="M22.8139 0L13.8847 8.9042L22.8137 17.8082L31.743 8.90401L22.8139 0Z" fill="white"/>
<path d="M12.0414 10.5934H5.25781V17.4146H12.0414V10.5934Z" fill="white"/>
<path d="M12.0414 0.393762H5.25781V7.15837H12.0414V0.393762Z" fill="white"/>
</svg>
